<svg xmlns="http://www.w3.org/2000/svg" viewBox="0 0 1024 1024"><rect width="1024" height="1024" rx="230" fill="#0F766E"/><circle cx="512" cy="512" r="310" fill="#F8FAFC"/><path d="M660 224c-126 36-218 151-218 287 0 136 92 251 218 287-44 27-95 42-150 42-181 0-328-147-328-328S329 184 510 184c55 0 106 15 150 40z" fill="#111827"/><circle cx="646" cy="364" r="54" fill="#FACC15"/><path d="M716 657c-87 95-235 101-330 14 99 35 210 9 282-69 40-43 64-95 73-149 29 67 21 147-25 204z" fill="#14B8A6"/></svg>